<svg xmlns="http://www.w3.org/2000/svg" version="1.1" xmlns:xlink="http://www.w3.org/1999/xlink" xmlns:svgjs="http://svgjs.dev/svgjs" width="100%" height="100%" viewBox="0 0 1000 600"><rect width="1000" height="600" x="0" y="0" fill="#0"/><g><rect width="333.3333333333333" height="333.3333333333333" rx="13.333333333333334" ry="13.333333333333334" y="197.23928949369576" fill="#00ffff" transform="matrix(0.7142160538172997,0,0,0.7142160538172998,0,40.0925272992133)" x="175.01702880859372"/><path d="M310.55520338588167 310.1075029145693L310.55520338588167 310.1075029145693Q304.54474446277857 306.4524941099795 298.8591752111945 306.4524941099795L298.8591752111945 306.4524941099795Q289.64043078184034 306.4524941099795 278.6754043680711 309.3765011536513L278.6754043680711 309.3765011536513L270.77652422926326 311.264922369356Q267.26365465596314 312.1380633615636 265.3752334402584 312.1380633615636L265.3752334402584 312.1380633615636Q260.9892228747508 312.1380633615636 260.9892228747508 308.9297778553126L260.9892228747508 308.9297778553126Q260.9892228747508 307.02105103513793 264.13659156759195 304.17826640934595Q267.26365465596314 301.33548178355386 272.5431118181483 298.6957532024613L272.5431118181483 298.6957532024613Q285.5386986789118 292.25887658548936 300.74759642689924 292.25887658548936L300.74759642689924 292.25887658548936Q322.53551002314805 292.25887658548936 328.66780257307096 299.7110334259585L328.66780257307096 299.7110334259585Q330.434390161956 301.7618994774227 330.434390161956 305.41690828201246L330.434390161956 305.41690828201246Q330.1298060949068 319.61052580650266 317.27635846543285 380.85222888785086L317.27635846543285 380.85222888785086Q334.51581666041454 373.84679534572047 338.39418711417363 369.3186455489232Q342.2725575679327 364.77019014765597 344.46556285068664 364.77019014765597Q346.65856813344044 364.77019014765597 346.65856813344044 369.3186455489232Q346.65856813344044 373.84679534572047 343.957922738938 377.1972200832611Q341.2572773444356 380.56795042527165 335.4701800705018 384.8118217594898Q329.70338840103796 389.0556930937079 314.352351421761 395.6347089419694L314.352351421761 395.6347089419694Q313.17462636250434 401.482723029313 309.9663408562534 408.6302958027329L309.9663408562534 408.6302958027329Q299.00131444248416 438.90595206741796 274.14725457127383 438.90595206741796L274.14725457127383 438.90595206741796Q262.00450309824794 438.90595206741796 253.53706603428165 433.64680050970276Q245.04932336584545 428.3673433475176 245.04932336584545 417.40231693374835L245.04932336584545 417.40231693374835Q245.04932336584545 413.46302966657936 249.06983305089418 409.95016009327924Q253.0903427359429 406.4372905199791 260.7658612255814 402.5792256706899Q268.4413797152198 398.7008552169308 290.6557110053376 390.80197507812295L290.6557110053376 390.80197507812295Q291.54915760201504 385.6849627516973 292.11771452717346 381.2177297683098Q292.70657705680173 376.7708023893923 293.4375788177198 373.5422112786714L293.4375788177198 373.5422112786714Q296.5037250926812 352.6477442790999 305.5803302907457 324.2808148345896L305.5803302907457 324.2808148345896Q308.19975326736835 316.2397954644921 310.55520338588167 310.1075029145693ZM264.3396476122914 425.15905784126664Q268.725658177799 427.49420235531 272.68525104943797 427.57542477318975Q276.62453831660685 427.63634158659966 278.6754043680711 425.8088371843047Q280.72627041953535 423.9813327820099 283.1426373514586 419.89990628355133Q285.5386986789118 415.7981741806228 287.89414879742526 405.5641495277715L287.89414879742526 405.5641495277715Q280.27954712119663 408.20387810886416 274.93917314560167 409.95016009327924Q269.61910477447657 411.7167476821643 266.32959685034575 413.17875120400015Q263.04008892621493 414.64075472583613 261.4968629864993 415.9403134119125Q259.9536370467837 417.2601777024587 259.9536370467837 419.1689045226334L259.9536370467837 419.1689045226334Q259.9536370467837 422.82391332722307 264.3396476122914 425.15905784126664ZM377.94950462162274 365.07477421470514L376.48750109978675 392.4061178312485Q376.48750109978675 401.03599973097425 359.67446059867393 401.03599973097425L359.67446059867393 401.03599973097425Q356.01945179408415 401.03599973097425 355.3493668465761 397.2997685085047Q354.69958750353794 393.58384289050514 354.69958750353794 386.86268781095396L354.69958750353794 386.86268781095396Q354.69958750353794 372.6690702864638 360.40546235959187 351.77460328689244L360.40546235959187 351.77460328689244Q369.90848525152524 317.25507568798923 380.7313724340049 311.12278313806644L380.7313724340049 311.12278313806644Q382.1933759558408 310.24964214585884 383.93965794025587 310.24964214585884Q385.68593992467095 310.24964214585884 385.68593992467095 315.9555170019129Q385.68593992467095 321.64108625349695 385.11738299951264 326.02709681900467L385.11738299951264 326.02709681900467Q383.93965794025587 334.79911795002 380.93442847870426 348.6881514074611Q377.94950462162274 362.57718486490216 377.94950462162274 365.07477421470514L377.94950462162274 365.07477421470514ZM386.4169416855889 353.0741619729688L386.4169416855889 353.0741619729688Q386.4169416855889 351.18574075726406 388.549030154933 350.5968782276358Q390.66081301980705 350.0080156980074 393.88940413052796 349.50037558625877Q397.0976896367789 348.99273547451025 400.89483767265835 347.95714964654314Q404.6919857085377 346.941869423046 407.9205768192586 344.1600016106638L407.9205768192586 344.1600016106638Q415.3727336597277 337.72312499369184 415.3727336597277 322.67667208146406L415.3727336597277 322.67667208146406Q415.3727336597277 313.03150995824114 408.87494022934595 307.91449763181544Q402.3568411944942 302.7974853053898 390.1531729080584 302.7974853053898Q377.94950462162274 302.7974853053898 367.2687566704326 307.91449763181544L367.2687566704326 307.91449763181544Q363.3294694032637 309.8029188475201 360.18210071042256 311.40706160064565Q357.0347320175813 313.03150995824114 354.41530904095873 313.03150995824114Q351.7755804598661 313.03150995824114 351.7755804598661 311.40706160064565L351.7755804598661 311.40706160064565Q351.7755804598661 308.9297778553126 356.60831432371253 303.2239029992586L356.60831432371253 303.2239029992586Q361.420742583089 297.96475144154334 371.87812888510973 293.436601644746Q382.33551518713034 288.90845184794875 393.88940413052796 288.90845184794875L393.88940413052796 288.90845184794875Q415.6570121223069 288.74600701218924 427.7997635953328 299.14247650080006L427.7997635953328 299.14247650080006Q438.31806671076333 308.19877609439465 438.31806671076333 322.5954496635843Q438.31806671076333 336.9921232327739 427.9419028266225 348.3226505270021Q417.5657389424815 359.6531778212303 401.99134031403526 359.6531778212303Q386.4169416855889 359.6531778212303 386.4169416855889 353.0741619729688Z " fill="#0" transform="matrix(0.7142160538172997,0,0,0.7142160538172998,0,40.0925272992133)"/><path d="M649.0070750991108 347.8865351816038L649.0070750991108 347.8865351816038Q634.8687262827162 347.8865351816038 635.1721243259866 340.74656789664346L635.1721243259866 340.74656789664346Q635.1721243259866 334.05158440847947 648.7036770558406 334.05158440847947L648.7036770558406 334.05158440847947Q651.9196963145054 334.05158440847947 654.8323175299 334.77973971232814L654.8323175299 334.77973971232814Q659.6260066135702 329.9658240924398 659.6260066135702 320.21663363535515L659.6260066135702 320.21663363535515Q659.6260066135702 303.3274758933102 637.0531921942622 303.3274758933102L637.0531921942622 303.3274758933102Q625.2611215791577 303.3274758933102 614.6219635284803 308.4245630202507L614.6219635284803 308.4245630202507Q610.6980155021848 310.30563088852637 607.562902388392 311.9035272497498Q604.4277892745993 313.5216501471913 601.8185661024748 313.5216501471913Q599.1891163941326 313.5216501471913 599.1891163941326 311.9035272497498L599.1891163941326 311.9035272497498Q599.1891163941326 310.0224593814741 602.1017376095272 306.3007767173588Q605.0143588249217 302.5993205894615 610.2530317053885 298.79673178047415L610.2530317053885 298.79673178047415Q623.6632252179344 289.49252512018586 640.6939687135055 289.3307128304417L640.6939687135055 289.3307128304417Q662.9836116257612 289.3307128304417 673.4609573866945 298.23038876636963L673.4609573866945 298.23038876636963Q682.5022190761485 305.6535275583822 682.5022190761485 318.45692498438757L682.5022190761485 318.45692498438757Q682.5022190761485 333.3234291046308 667.9391129991756 341.1915516934398L667.9391129991756 341.1915516934398Q681.9156495258261 349.2012600357749 684.5248726979504 360.8517448973532L684.5248726979504 360.8517448973532Q685.4148402915431 364.91727867717486 685.4148402915431 371.61226216533885Q685.4148402915431 378.32747218972077 681.7740637722999 384.2943003740361Q678.1332872530567 390.2611285583514 672.0046467789972 394.34688887439097L672.0046467789972 394.34688887439097Q659.7675923670964 402.1947849269819 640.6939687135055 402.1947849269819L640.6939687135055 402.1947849269819Q627.1624159836514 402.1947849269819 610.5564297486586 396.0863709891405L610.5564297486586 396.0863709891405Q599.4925144374029 392.00061067310094 594.2336150207183 386.33718053205587L594.2336150207183 386.33718053205587Q591.6243918485939 383.5661450701874 591.685071457248 380.79510960831897Q591.76597760212 378.0240741464505 594.4561069191165 378.0240741464505Q597.1462362361127 378.0240741464505 604.7311873178695 379.9253685509442L604.7311873178695 379.9253685509442L604.7311873178695 379.7837827974181Q604.7311873178695 368.416469442892 607.3404104899938 356.48281307426134L607.3404104899938 356.48281307426134Q611.8711546028298 335.6494807697029 617.8379827871452 323.85741015459837L617.8379827871452 323.85741015459837Q624.2497947682568 310.7506146853227 631.0863640099469 310.7506146853227L631.0863640099469 310.7506146853227Q632.9876584144406 310.7506146853227 632.9876584144406 317.3040124199606Q632.9876584144406 323.85741015459837 631.7336131689235 330.69397939628846Q630.4997944596245 337.5507751741966 629.1243899967992 344.1648525174885Q627.728758997756 350.79915639699834 626.4949402884569 356.1794150309911Q625.2611215791577 361.5799002012019 625.2611215791577 363.905951866274L625.2611215791577 363.905951866274L623.8048109714605 385.8921967352595Q632.4010888641182 388.2182484003316 638.3679170484334 388.2182484003316Q644.3347452327487 388.2182484003316 649.1486608526369 386.1753682423117L649.1486608526369 386.1753682423117Q661.2239029747936 381.07828111537117 661.2239029747936 368.416469442892L661.2239029747936 368.416469442892Q661.2239029747936 360.8517448973532 659.7675923670964 355.8962435239389Q658.3112817593991 350.94074215052444 654.5289194866297 347.1583798777551L654.5289194866297 347.1583798777551Q651.1915410106568 347.8865351816038 649.0070750991108 347.8865351816038ZM730.9852263907376 383.12116127339107L730.9852263907376 383.12116127339107Q742.3525397452637 383.12116127339107 752.9714712597232 374.100126120155L752.9714712597232 374.100126120155Q756.9156458222367 370.7425211079641 759.3832832408349 367.9108060374415Q761.8711471956511 365.05886443070096 763.1656455136042 365.05886443070096L763.1656455136042 365.05886443070096Q765.208525671624 365.05886443070096 765.208525671624 369.14462474674065Q765.208525671624 373.2303850627802 763.0240597600781 378.2465660448487Q760.8395938485322 383.26274702691717 755.7425067215917 388.0766626468054L755.7425067215917 388.0766626468054Q743.2222808026385 399.86873326190994 721.3776216871792 399.86873326190994L721.3776216871792 399.86873326190994Q704.0434801483377 399.86873326190994 697.7934804569701 387.34850734295674L697.7934804569701 387.34850734295674Q695.6090145454242 382.97957551986497 695.6090145454242 374.82828142400365Q695.6090145454242 366.67698732814245 698.8048072678711 357.8582175370866Q702.0005999903179 349.03944774603076 707.3201790156567 342.64786230113714Q712.6397580409954 336.23605032002536 719.6381395724296 332.6559534094363Q726.6162945676457 329.096083035065 734.5653233013269 329.096083035065Q742.4941254987898 329.096083035065 746.7821511770096 333.02003106136056Q751.0904033914475 336.964205623874 751.0904033914475 343.21420531524166Q751.0904033914475 349.4844315428272 747.9552902776546 353.4892857139947Q744.8201771638619 357.4941398851623 739.8646757904474 360.1842692021587Q734.9294009532512 362.8743985191551 728.8816666240638 364.99818482204694Q722.8339322948764 367.10174458872086 717.0086898640872 369.7311942970631L717.0086898640872 369.7311942970631L717.0086898640872 373.37197081630643Q717.1502756176134 378.6106436967731 721.3776216871792 380.79510960831897Q725.6049677567448 382.97957551986497 730.9852263907376 383.12116127339107ZM728.5175889721394 342.0612927508146L728.5175889721394 342.0612927508146Q720.9326378903827 342.0612927508146 718.0200166749881 359.6786057967082L718.0200166749881 359.6786057967082Q721.0944501801268 357.6357256386884 723.7845794971232 356.037829277465Q726.4747088141196 354.43993291624156 728.5175889721394 352.9836223085442L728.5175889721394 352.9836223085442Q732.8865207952313 349.7676030498794 733.0281065487575 345.7020692700578L733.0281065487575 345.7020692700578Q733.0281065487575 342.0612927508146 728.5175889721394 342.0612927508146ZM764.4196907591213 391.07019000707214Q762.7408882530258 387.20692158943064 762.0127329491771 382.0289283176181Q761.2845776453286 376.87116158202343 761.2845776453286 367.5467283855172Q761.2845776453286 358.222295189011 764.7837684110457 342.3444642578668L764.7837684110457 342.3444642578668L758.2303706764078 342.3444642578668Q756.4706620254402 342.3444642578668 756.4706620254402 340.88815365016956L756.4706620254402 340.88815365016956Q756.4706620254402 337.38896288445244 757.1381377206349 335.1438173642524Q757.7853868796115 332.87844530783445 760.2530242982097 329.9658240924398L760.2530242982097 329.9658240924398L763.7522150639268 329.9658240924398Q765.7950952219466 329.9658240924398 768.1211468870187 329.8242383389137L768.1211468870187 329.8242383389137Q775.1195284184528 307.39300967313176 782.4010814569393 307.39300967313176L782.4010814569393 307.39300967313176Q788.2263238877284 307.5345954266579 790.5523755528005 314.81614846514435L790.5523755528005 314.81614846514435Q791.1389451031231 316.85902862316414 791.8671004069716 319.18508028823624L791.8671004069716 319.18508028823624L785.9002722226563 329.6826525853876Q796.0944464765374 329.9658240924398 798.7845757935339 329.9658240924398Q801.4747051105302 329.9658240924398 801.6971970089284 330.4714874978903Q801.9196889073266 330.9973774395587 801.9196889073266 332.0087042504597L801.9196889073266 332.0087042504597Q801.9196889073266 334.63815395880204 800.6656436618094 338.56210198509746Q799.4318249525104 342.486050011393 797.833928591287 342.3444642578668L797.833928591287 342.3444642578668L783.2708225143141 341.6163089540182Q780.2166155453933 359.395434289656 780.2166155453933 371.04591915123433Q780.2166155453933 382.69640401281265 783.5539940213663 382.69640401281265L783.5539940213663 382.69640401281265Q786.3250294832347 382.69640401281265 793.6065825217212 378.1049802913226Q800.8881355602077 373.51355656983253 804.1041548188725 369.28621050026675Q807.2999475413194 365.05886443070096 809.3428276993392 365.05886443070096L809.3428276993392 365.05886443070096Q811.385707857359 365.05886443070096 811.385707857359 370.0143658041154Q811.385707857359 374.96986717752975 807.8865170916418 380.1478604493424Q804.3873263259248 385.30562718493695 799.0677473005861 389.6138793993748Q793.7481682752474 393.9019050775946 787.2756766854816 396.67294053946307Q780.8031850957159 399.4439760013315 775.9892694758277 399.4439760013315Q771.1753538559393 399.4439760013315 768.626810292469 397.17860394491356Q766.0782667289988 394.9132318884955 764.4196907591213 391.07019000707214ZM895.4067393070056 330.41080788923625L895.4067393070056 330.41080788923625Q889.5814968762164 344.6705159229389 889.5814968762164 356.98847647971184Q889.5814968762164 369.28621050026675 894.597677858285 375.11145293105596Q899.6340853765713 380.93669536184507 910.8395864413534 380.93669536184507L910.8395864413534 380.93669536184507Q917.5345699295173 380.93669536184507 922.6316570564578 376.1430062781749L922.6316570564578 376.1430062781749Q924.2497799538993 364.1891233733262 925.2611067648002 360.2651753470308L925.2611067648002 360.2651753470308Q927.7287441833984 350.65757064347224 932.8258313103388 350.65757064347224L932.8258313103388 350.65757064347224Q936.9115916263785 350.65757064347224 940.5523681456217 356.26032117586317Q944.1931446648649 361.8630717082542 944.0515589113389 365.78701973454963L944.0515589113389 365.78701973454963Q944.0515589113389 372.3404174691875 938.8128860308722 390.1195428048253L938.8128860308722 390.1195428048253Q949.0070602847533 382.3930059695424 962.255441507555 367.24333034224696L962.255441507555 367.24333034224696Q964.1365093758307 365.05886443070096 965.4512342300019 365.05886443070096L965.4512342300019 365.05886443070096Q967.4941143880217 365.05886443070096 967.4941143880217 369.8727800505893L967.4941143880217 369.8727800505893Q967.4941143880217 379.19721324709553 958.1696811915153 389.7554651529009Q948.8452479950091 400.3137170587063 933.4124008606614 406.5637167500738L933.4124008606614 406.5637167500738Q932.2594882962343 409.3347522119424 931.5313329923857 411.8226161667585Q930.803177688537 414.2902535853567 929.630038587892 417.7894443510738Q928.4568994872469 421.28863511679094 925.5442782718524 425.43507504148454Q922.6316570564578 429.58151496617825 918.2627252333659 432.4941361815729L918.2627252333659 432.4941361815729Q908.9585185730776 438.9059481626846 896.943956059575 438.9059481626846Q884.9293935460723 438.9059481626846 876.8387790588652 433.58636913734586Q868.748164571658 428.26679011200713 868.748164571658 418.9423569155008L868.748164571658 418.9423569155008Q868.748164571658 414.4318393388828 873.1170963947499 411.51921812348826Q877.4860282178417 408.6065969080937 884.484409749276 406.5030371414198Q891.4827912807101 404.3792508385279 900.2206549268939 402.7813544773045Q908.9585185730776 401.18345811608106 917.6963822192614 399.1405779580613L917.6963822192614 399.1405779580613Q918.8492947836884 395.8031994820883 919.435864334011 392.89057826669375L919.435864334011 392.89057826669375Q913.7522076567479 397.25951008978564 905.4593278073605 397.25951008978564L905.4593278073605 397.25951008978564Q888.1251862685191 397.25951008978564 878.2141835216904 390.1195428048253L878.2141835216904 390.1195428048253Q866.7255109498561 381.80643641921984 866.7255109498561 364.1891233733262L866.7255109498561 364.1891233733262Q866.7255109498561 341.1915516934398 878.3759958114346 320.49980514240747L878.3759958114346 320.49980514240747Q874.8768050457173 316.43427136258583 872.6923391341714 311.9844333946219Q870.5078732226256 307.5345954266579 870.5078732226256 305.2085437615858L870.5078732226256 305.2085437615858Q870.5078732226256 301.1430099817642 873.4204944380201 301.28459573529034L873.4204944380201 301.28459573529034Q875.3015623062958 301.28459573529034 877.789426261112 303.6106474003624Q880.2570636797102 305.9366990654345 881.7942804322796 307.5345954266579Q883.311270648631 309.15271832409934 885.0709792995984 310.44721664205247L885.0709792995984 310.44721664205247Q892.6357038451372 300.83961193849393 902.8298780990182 294.87278375417867Q913.0240523528993 288.90595556986335 925.2611067648002 288.90595556986335Q937.498161176701 288.90595556986335 944.334730418391 293.41647314648134Q951.1915261962992 297.9269907230994 951.1915261962992 309.15271832409934Q951.1915261962992 320.35821938888125 942.5143421587695 327.7813581808939Q933.8573846574578 335.20449697290644 918.4245375231101 335.20449697290644L918.4245375231101 335.20449697290644Q907.7853794724326 335.20449697290644 895.4067393070056 330.41080788923625ZM900.2206549268939 320.49980514240747L900.2206549268939 320.49980514240747Q908.230363269229 323.9989959081246 919.5774500875372 323.9989959081246L919.5774500875372 323.9989959081246Q926.5758316189714 323.9989959081246 930.803177688537 320.21663363535515Q935.0102972218848 316.43427136258583 935.0102972218848 311.9844333946219Q935.0102972218848 307.5345954266579 932.1785821513623 305.431035659984Q929.3468670808397 303.3274758933102 924.6745372144776 303.3274758933102L924.6745372144776 303.3274758933102Q910.6980006878272 303.3274758933102 900.2206549268939 320.49980514240747ZM895.2651535534795 427.6802205616847L895.2651535534795 427.6802205616847Q905.1559297640903 427.6802205616847 912.5992950923209 412.8339429776594L912.5992950923209 412.8339429776594Q904.5895867499859 414.8768231356793 899.0475158262489 416.02973570010624Q893.5054449025118 417.20287480075126 890.0871602816668 418.072615858126Q886.6688756608219 418.9423569155008 885.1316589082525 419.8323245090936Q883.6146686919011 420.7020655664684 883.6146686919011 422.2999619276918L883.6146686919011 422.2999619276918Q883.6146686919011 425.07099738956026 887.3161248197983 426.3048160988594Q891.0378074839138 427.53863480815846 895.2651535534795 427.6802205616847ZM1049.6340779693924 364.63410717012266L1049.6340779693924 364.63410717012266Q1052.243301141517 364.63410717012266 1052.243301141517 371.32909065828653L1052.243301141517 371.32909065828653Q1052.243301141517 374.96986717752975 1049.189094172596 380.1478604493424Q1046.1348872036756 385.30562718493695 1041.260291975133 389.6138793993748Q1036.3856967465908 393.9019050775946 1030.3986420260576 396.67294053946307Q1024.431813841742 399.4439760013315 1018.7481571644793 399.4439760013315L1018.7481571644793 399.4439760013315Q1011.0418468654143 399.4439760013315 1008.412397157072 385.8921967352595L1008.412397157072 385.8921967352595Q1004.6300348843026 392.1624229628451 998.5216209464612 396.1672771340126Q992.3929804724017 400.1721313051802 982.1381266098666 400.1721313051802Q971.8630462111136 400.1721313051802 965.5928199835279 393.7603193240685Q959.3428202921604 387.34850734295674 959.4844060456866 378.1656598999766L959.4844060456866 378.1656598999766Q959.4844060456866 353.40837956912264 975.9488065271531 339.14867153542L975.9488065271531 339.14867153542Q982.9269615223694 333.1818433511047 988.9746958515567 331.280548946611Q995.022430180744 329.37925454211734 1001.7174136689081 329.37925454211734Q1008.412397157072 329.37925454211734 1012.6397432266377 331.72553274340737L1012.6397432266377 331.72553274340737Q1014.6826233846574 327.4981866738417 1017.2918465567819 327.4981866738417L1017.2918465567819 327.4981866738417Q1022.3889336837224 327.4981866738417 1026.9803574052125 331.9277981055876Q1031.5717811267027 336.37763607355157 1031.5717811267027 340.301584099847L1031.5717811267027 340.301584099847Q1029.5289009686826 345.11549971973534 1025.6049529423872 351.8104832078992L1025.6049529423872 351.8104832078992Q1024.431813841742 358.5054666960632 1024.431813841742 370.60093535443787Q1024.431813841742 382.69640401281265 1027.486020810663 382.69640401281265L1027.486020810663 382.69640401281265Q1031.2886096196503 382.69640401281265 1045.8517156966232 367.5467283855172L1045.8517156966232 367.5467283855172Q1048.4609388687477 364.63410717012266 1049.6340779693924 364.63410717012266ZM980.8840813643495 373.37197081630643L980.8840813643495 373.37197081630643Q980.8840813643495 384.5774718810883 989.1971877499549 384.5774718810883L989.1971877499549 384.5774718810883Q998.0766371496649 384.4358861275622 1003.901879580454 375.11145293105596L1003.901879580454 375.11145293105596Q1005.9447597384737 371.9156602086091 1007.259484592645 367.24333034224696L1007.259484592645 367.24333034224696Q1007.259484592645 350.94074215052444 1010.1721058080395 339.2902572889461L1010.1721058080395 339.2902572889461Q998.3598086567171 341.6163089540182 989.6219450105333 350.65757064347224Q980.8840813643495 359.6786057967082 980.8840813643495 373.37197081630643ZM1124.7756600193293 354.7231044232939L1124.7756600193293 354.7231044232939Q1124.7756600193293 349.9294153396236 1119.2335890955924 349.9294153396236L1119.2335890955924 349.9294153396236Q1115.4512268228232 349.9294153396236 1110.799123492679 357.27164798676415Q1106.1267936263166 364.63410717012266 1104.104140004515 373.06857277303607L1104.104140004515 373.06857277303607L1104.104140004515 373.37197081630643Q1104.104140004515 378.32747218972077 1105.6211302208662 383.5661450701874Q1107.1583469734355 388.80481795065407 1107.1583469734355 390.84769810867385L1107.1583469734355 390.84769810867385Q1107.1583469734355 395.8031994820883 1094.7797068080085 400.5968885657586L1094.7797068080085 400.5968885657586Q1092.878412403515 401.32504386960716 1091.4221017958175 401.32504386960716L1091.4221017958175 401.32504386960716Q1087.7813252765745 401.32504386960716 1086.4059208137492 397.54268159683784Q1085.010289814706 393.7603193240685 1085.010289814706 387.2676011980848Q1085.010289814706 380.79510960831897 1085.3743674666302 375.0507733224018Q1085.7384451185549 369.28621050026675 1086.102522770479 364.4116152717244Q1086.4666004224032 359.5370200431821 1086.8306780743278 355.8153373790668Q1087.194755726252 352.11388125116946 1087.194755726252 349.7676030498794L1087.194755726252 349.7676030498794Q1087.194755726252 344.832328212683 1082.684238149634 344.832328212683Q1078.173720573016 344.832328212683 1072.2068923887005 355.3905801184884Q1066.2400642043854 365.9488320242938 1066.2400642043854 372.1381521070073Q1066.2400642043854 378.32747218972077 1067.7570544207365 383.5661450701874Q1069.2942711733062 388.80481795065407 1069.2942711733062 390.84769810867385L1069.2942711733062 390.84769810867385Q1069.2942711733062 395.8031994820883 1056.9156310078793 400.5968885657586L1056.9156310078793 400.5968885657586Q1055.0143366033853 401.32504386960716 1053.5580259956882 401.32504386960716L1053.5580259956882 401.32504386960716Q1049.9172494764448 401.32504386960716 1048.5418450136194 397.54268159683784Q1047.1462140145763 393.7603193240685 1047.1462140145763 385.8921967352595L1047.1462140145763 385.8921967352595Q1047.1462140145763 365.2206767204451 1048.7643369120178 356.037829277465L1048.7643369120178 356.037829277465Q1050.9488028235637 342.486050011393 1058.6551131226288 330.41080788923625L1058.6551131226288 330.41080788923625Q1061.284562830971 326.32504757319657 1064.3387697998915 326.32504757319657L1064.3387697998915 326.32504757319657Q1069.15268541978 326.32504757319657 1073.2182191996017 334.1931701620056L1073.2182191996017 334.1931701620056Q1074.3913583002468 336.23605032002536 1074.977927850569 337.9755324347749L1074.977927850569 337.9755324347749Q1081.9560828457852 329.23766878859124 1091.4221017958175 329.23766878859124L1091.4221017958175 329.23766878859124Q1097.6923280234032 329.23766878859124 1102.6478293968175 333.38410871328483Q1107.5831042340142 337.5507751741966 1107.5831042340142 343.8007748655641L1107.5831042340142 343.8007748655641L1107.5831042340142 345.39867122678754Q1116.482780169942 334.3347559155317 1129.2861775959473 334.3347559155317L1129.2861775959473 334.3347559155317Q1137.1543001847563 334.3347559155317 1141.240060500796 338.42051623157136Q1145.3055942806177 342.486050011393 1145.3055942806177 348.47310473192624Q1145.3055942806177 354.43993291624156 1144.4358532232427 359.23362199991186Q1143.5661121658682 364.0475376198001 1142.4738792100952 368.2748836893659Q1141.3816462543223 372.50222975893166 1140.5119051969473 375.7789286262505Q1139.6219376033546 379.05562749356943 1139.6219376033546 380.87601575319104Q1139.6219376033546 382.69640401281265 1140.7950767039997 382.69640401281265L1140.7950767039997 382.69640401281265Q1142.9795426155456 382.69640401281265 1146.1753353379922 379.9253685509442Q1149.391354596657 377.15433308907575 1152.5871473191041 373.8776342217568Q1155.803166577769 370.60093535443787 1158.4932958947652 367.8298998925694Q1161.183425211762 365.05886443070096 1162.1947520226627 365.05886443070096L1162.1947520226627 365.05886443070096Q1164.2376321806823 365.05886443070096 1164.2376321806823 370.0143658041154L1164.2376321806823 370.0143658041154Q1164.2376321806823 380.2085400579964 1153.9827783181472 389.81614476155494Q1143.7076979193944 399.4439760013315 1132.0572130578157 399.4439760013315L1132.0572130578157 399.4439760013315Q1121.5798672968826 399.4439760013315 1121.5798672968826 380.3501258115226L1121.5798672968826 380.3501258115226Q1121.5798672968826 375.5564367278523 1123.177763658106 367.10174458872086Q1124.7756600193293 358.66727898580734 1124.7756600193293 354.7231044232939ZM1190.8962069160302 383.12116127339107L1190.8962069160302 383.12116127339107Q1202.2432937343378 383.12116127339107 1212.8824517850153 374.100126120155L1212.8824517850153 374.100126120155Q1216.8063998113112 370.7425211079641 1219.2942637661272 367.9108060374415Q1221.7619011847255 365.05886443070096 1223.0766260388964 365.05886443070096L1223.0766260388964 365.05886443070096Q1225.119506196916 365.05886443070096 1225.119506196916 369.14462474674065Q1225.119506196916 373.2303850627802 1222.9350402853706 378.2465660448487Q1220.7505743738243 383.26274702691717 1215.6534872468837 388.0766626468054L1215.6534872468837 388.0766626468054Q1203.1332613279305 399.86873326190994 1181.2886022124717 399.86873326190994L1181.2886022124717 399.86873326190994Q1163.9544606736304 399.86873326190994 1157.6842344460447 387.34850734295674L1157.6842344460447 387.34850734295674Q1155.4997685344988 382.97957551986497 1155.4997685344988 374.82828142400365Q1155.4997685344988 366.67698732814245 1158.7157877931636 357.8582175370866Q1161.9115805156102 349.03944774603076 1167.2311595409492 342.64786230113714Q1172.5507385662877 336.23605032002536 1179.528893561504 332.6559534094363Q1186.5272750929385 329.096083035065 1194.4560772904015 329.096083035065Q1202.4051060240822 329.096083035065 1206.6931317023018 333.02003106136056Q1210.9811573805218 336.964205623874 1210.9811573805218 343.21420531524166Q1210.9811573805218 349.4844315428272 1207.866270802947 353.4892857139947Q1204.7311576891543 357.4941398851623 1199.77565631574 360.1842692021587Q1194.8201549423256 362.8743985191551 1188.7724206131384 364.99818482204694Q1182.7449128201688 367.10174458872086 1176.9196703893795 369.7311942970631L1176.9196703893795 369.7311942970631L1176.9196703893795 373.37197081630643Q1177.0612561429057 378.6106436967731 1181.2886022124717 380.79510960831897Q1185.495721745819 382.97957551986497 1190.8962069160302 383.12116127339107ZM1188.4083429612137 342.0612927508146L1188.4083429612137 342.0612927508146Q1180.8436184156753 342.0612927508146 1177.9309972002807 359.6786057967082L1177.9309972002807 359.6786057967082Q1180.985204169201 357.6357256386884 1183.6753334861978 356.037829277465Q1186.3856893394122 354.43993291624156 1188.4083429612137 352.9836223085442L1188.4083429612137 352.9836223085442Q1192.777274784306 349.7676030498794 1192.93908707405 345.7020692700578L1192.93908707405 345.7020692700578Q1192.93908707405 342.0612927508146 1188.4083429612137 342.0612927508146Z " fill="#00ffff" transform="matrix(0.7142160538172997,0,0,0.7142160538172998,0,40.0925272992133)"/></g></svg>